<svg width="165" height="24" viewBox="0 0 165 24" fill="none" xmlns="http://www.w3.org/2000/svg">
<path d="M6.272 6.608C7.616 6.608 8.736 6.93867 9.632 7.6C10.528 8.26133 11.12 9.16267 11.408 10.304H9.488C9.24267 9.696 8.83733 9.21067 8.272 8.848C7.71733 8.48533 7.056 8.304 6.288 8.304C5.584 8.304 4.94933 8.46933 4.384 8.8C3.82933 9.13067 3.392 9.6 3.072 10.208C2.76267 10.816 2.608 11.5307 2.608 12.352C2.608 13.216 2.768 13.9573 3.088 14.576C3.408 15.1947 3.856 15.6693 4.432 16C5.01867 16.32 5.696 16.48 6.464 16.48C7.40267 16.48 8.208 16.192 8.88 15.616C9.552 15.0293 9.95733 14.2293 10.096 13.216H5.952V11.872H11.632V13.616C11.504 14.448 11.2053 15.2053 10.736 15.888C10.2773 16.56 9.664 17.0987 8.896 17.504C8.13867 17.9093 7.26933 18.112 6.288 18.112C5.18933 18.112 4.21867 17.8667 3.376 17.376C2.53333 16.8853 1.88267 16.208 1.424 15.344C0.965333 14.4693 0.736 13.472 0.736 12.352C0.736 11.232 0.965333 10.24 1.424 9.376C1.88267 8.50133 2.528 7.824 3.36 7.344C4.20267 6.85333 5.17333 6.608 6.272 6.608ZM21.671 13.168C21.671 13.4667 21.6497 13.728 21.607 13.952H14.823C14.855 14.8587 15.1057 15.5307 15.575 15.968C16.0443 16.4053 16.6257 16.624 17.319 16.624C17.927 16.624 18.439 16.4693 18.855 16.16C19.2817 15.8507 19.543 15.44 19.639 14.928H21.591C21.4737 15.5467 21.2283 16.096 20.855 16.576C20.4817 17.056 19.9963 17.4347 19.399 17.712C18.8017 17.9787 18.135 18.112 17.399 18.112C16.5457 18.112 15.7883 17.9307 15.127 17.568C14.4763 17.2053 13.9643 16.6827 13.591 16C13.2177 15.3173 13.031 14.512 13.031 13.584C13.031 12.6667 13.2177 11.8667 13.591 11.184C13.9643 10.5013 14.4763 9.97867 15.127 9.616C15.7883 9.25333 16.5457 9.072 17.399 9.072C18.263 9.072 19.015 9.25333 19.655 9.616C20.3057 9.968 20.8017 10.4587 21.143 11.088C21.495 11.7067 21.671 12.4 21.671 13.168ZM19.831 13.12C19.8523 12.544 19.751 12.064 19.527 11.68C19.3137 11.2853 19.015 10.9973 18.631 10.816C18.2577 10.624 17.847 10.528 17.399 10.528C16.6843 10.528 16.087 10.7467 15.607 11.184C15.127 11.6213 14.8657 12.2667 14.823 13.12H19.831ZM27.8641 16.416V18H26.7441C25.8055 18 25.0908 17.776 24.6001 17.328C24.1201 16.8693 23.8801 16.112 23.8801 15.056V10.736H22.6161V9.184H23.8801V6.992H25.7201V9.184H27.8481V10.736H25.7201V15.088C25.7201 15.5893 25.8108 15.936 25.9921 16.128C26.1841 16.32 26.5148 16.416 26.9841 16.416H27.8641ZM44.3468 9.04C45.3921 9.04 46.2241 9.37067 46.8428 10.032C47.4721 10.6933 47.7868 11.6373 47.7868 12.864V18H45.9628V13.056C45.9628 12.288 45.7708 11.696 45.3868 11.28C45.0028 10.8533 44.4748 10.64 43.8028 10.64C43.0881 10.64 42.5174 10.8693 42.0908 11.328C41.6748 11.776 41.4668 12.4373 41.4668 13.312V18H39.6428V13.056C39.6428 12.288 39.4508 11.696 39.0668 11.28C38.6828 10.8533 38.1548 10.64 37.4828 10.64C36.7681 10.64 36.1974 10.8693 35.7708 11.328C35.3548 11.776 35.1468 12.4373 35.1468 13.312V18H33.3228V9.184H35.1468V11.024C35.3708 10.384 35.7441 9.89333 36.2668 9.552C36.7894 9.21067 37.4028 9.04 38.1068 9.04C38.8428 9.04 39.4774 9.22133 40.0108 9.584C40.5548 9.94667 40.9494 10.4693 41.1948 11.152C41.4508 10.4907 41.8614 9.97333 42.4268 9.6C42.9921 9.22667 43.6321 9.04 44.3468 9.04ZM50.9565 9.184L53.5965 15.664L56.0445 9.184H58.0765L52.7485 22.192H50.7165L52.6205 17.792L48.9085 9.184H50.9565ZM68.9619 18L66.1459 13.488H64.8499V18H63.0259V6.704H67.0099C68.3005 6.704 69.2765 7.01867 69.9379 7.648C70.6099 8.27733 70.9459 9.10933 70.9459 10.144C70.9459 11.0293 70.6952 11.7547 70.1939 12.32C69.7032 12.8853 68.9885 13.248 68.0499 13.408L71.0099 18H68.9619ZM64.8499 12.192H66.8659C68.3379 12.192 69.0739 11.5413 69.0739 10.24C69.0739 9.62133 68.8925 9.14133 68.5299 8.8C68.1779 8.448 67.6232 8.272 66.8659 8.272H64.8499V12.192ZM80.7804 13.168C80.7804 13.4667 80.759 13.728 80.7164 13.952H73.9324C73.9644 14.8587 74.215 15.5307 74.6844 15.968C75.1537 16.4053 75.735 16.624 76.4284 16.624C77.0364 16.624 77.5484 16.4693 77.9644 16.16C78.391 15.8507 78.6524 15.44 78.7484 14.928H80.7004C80.583 15.5467 80.3377 16.096 79.9644 16.576C79.591 17.056 79.1057 17.4347 78.5084 17.712C77.911 17.9787 77.2444 18.112 76.5084 18.112C75.655 18.112 74.8977 17.9307 74.2364 17.568C73.5857 17.2053 73.0737 16.6827 72.7004 16C72.327 15.3173 72.1404 14.512 72.1404 13.584C72.1404 12.6667 72.327 11.8667 72.7004 11.184C73.0737 10.5013 73.5857 9.97867 74.2364 9.616C74.8977 9.25333 75.655 9.072 76.5084 9.072C77.3724 9.072 78.1244 9.25333 78.7644 9.616C79.415 9.968 79.911 10.4587 80.2524 11.088C80.6044 11.7067 80.7804 12.4 80.7804 13.168ZM78.9404 13.12C78.9617 12.544 78.8604 12.064 78.6364 11.68C78.423 11.2853 78.1244 10.9973 77.7404 10.816C77.367 10.624 76.9564 10.528 76.5084 10.528C75.7937 10.528 75.1964 10.7467 74.7164 11.184C74.2364 11.6213 73.975 12.2667 73.9324 13.12H78.9404ZM85.4375 9.072C86.4722 9.072 87.2988 9.33867 87.9175 9.872C88.5468 10.3947 88.9308 11.0987 89.0695 11.984H87.3415C87.2668 11.504 87.0588 11.12 86.7175 10.832C86.3868 10.5333 85.9442 10.384 85.3895 10.384C84.9308 10.384 84.5735 10.496 84.3175 10.72C84.0722 10.9333 83.9495 11.2267 83.9495 11.6C83.9495 11.8773 84.0402 12.1013 84.2215 12.272C84.4028 12.4427 84.6268 12.576 84.8935 12.672C85.1708 12.768 85.5602 12.8747 86.0615 12.992C86.7228 13.1413 87.2562 13.296 87.6615 13.456C88.0775 13.616 88.4295 13.872 88.7175 14.224C89.0162 14.5653 89.1655 15.0347 89.1655 15.632C89.1655 16.368 88.8828 16.9653 88.3175 17.424C87.7628 17.8827 87.0108 18.112 86.0615 18.112C84.9628 18.112 84.0722 17.856 83.3895 17.344C82.7175 16.832 82.3122 16.1173 82.1735 15.2H83.9495C84.0028 15.68 84.2162 16.0693 84.5895 16.368C84.9628 16.6667 85.4535 16.816 86.0615 16.816C86.4988 16.816 86.8402 16.704 87.0855 16.48C87.3415 16.2453 87.4695 15.952 87.4695 15.6C87.4695 15.2907 87.3735 15.0453 87.1815 14.864C86.9895 14.6827 86.7495 14.544 86.4615 14.448C86.1735 14.3413 85.7788 14.2347 85.2775 14.128C84.6375 13.9787 84.1148 13.8293 83.7095 13.68C83.3148 13.5307 82.9735 13.2907 82.6855 12.96C82.4082 12.6187 82.2695 12.16 82.2695 11.584C82.2695 10.8373 82.5468 10.2347 83.1015 9.776C83.6668 9.30667 84.4455 9.072 85.4375 9.072ZM99.1226 9.184V18H97.2826V16.08C97.0586 16.7307 96.6693 17.2373 96.1146 17.6C95.56 17.952 94.9146 18.128 94.1786 18.128C93.1546 18.128 92.3333 17.7973 91.7146 17.136C91.096 16.4747 90.7866 15.5307 90.7866 14.304V9.184H92.6106V14.112C92.6106 14.912 92.8133 15.5307 93.2186 15.968C93.624 16.3947 94.1786 16.608 94.8826 16.608C95.608 16.608 96.1893 16.3733 96.6266 15.904C97.064 15.4347 97.2826 14.752 97.2826 13.856V9.184H99.1226ZM112.331 9.04C113.376 9.04 114.208 9.37067 114.827 10.032C115.456 10.6933 115.771 11.6373 115.771 12.864V18H113.947V13.056C113.947 12.288 113.755 11.696 113.371 11.28C112.987 10.8533 112.459 10.64 111.787 10.64C111.072 10.64 110.502 10.8693 110.075 11.328C109.659 11.776 109.451 12.4373 109.451 13.312V18H107.627V13.056C107.627 12.288 107.435 11.696 107.051 11.28C106.667 10.8533 106.139 10.64 105.467 10.64C104.752 10.64 104.182 10.8693 103.755 11.328C103.339 11.776 103.131 12.4373 103.131 13.312V18H101.307V9.184H103.131V11.024C103.355 10.384 103.728 9.89333 104.251 9.552C104.774 9.21067 105.387 9.04 106.091 9.04C106.827 9.04 107.462 9.22133 107.995 9.584C108.539 9.94667 108.934 10.4693 109.179 11.152C109.435 10.4907 109.846 9.97333 110.411 9.6C110.976 9.22667 111.616 9.04 112.331 9.04ZM126.093 13.168C126.093 13.4667 126.072 13.728 126.029 13.952H119.245C119.277 14.8587 119.528 15.5307 119.997 15.968C120.466 16.4053 121.048 16.624 121.741 16.624C122.349 16.624 122.861 16.4693 123.277 16.16C123.704 15.8507 123.965 15.44 124.061 14.928H126.013C125.896 15.5467 125.65 16.096 125.277 16.576C124.904 17.056 124.418 17.4347 123.821 17.712C123.224 17.9787 122.557 18.112 121.821 18.112C120.968 18.112 120.21 17.9307 119.549 17.568C118.898 17.2053 118.386 16.6827 118.013 16C117.64 15.3173 117.453 14.512 117.453 13.584C117.453 12.6667 117.64 11.8667 118.013 11.184C118.386 10.5013 118.898 9.97867 119.549 9.616C120.21 9.25333 120.968 9.072 121.821 9.072C122.685 9.072 123.437 9.25333 124.077 9.616C124.728 9.968 125.224 10.4587 125.565 11.088C125.917 11.7067 126.093 12.4 126.093 13.168ZM124.253 13.12C124.274 12.544 124.173 12.064 123.949 11.68C123.736 11.2853 123.437 10.9973 123.053 10.816C122.68 10.624 122.269 10.528 121.821 10.528C121.106 10.528 120.509 10.7467 120.029 11.184C119.549 11.6213 119.288 12.2667 119.245 13.12H124.253Z" fill="#92DCDC"/>
<path fill-rule="evenodd" clip-rule="evenodd" d="M154.58 3H160.588L150.715 12.8729L152.129 14.2871L162.002 4.41417V10.4218H164.002V2V1H163.002H154.58V3ZM143 4.15813H147.211V6.15813H144V21.0018H158.844V17.7911H160.844V22.0018V23.0018H159.844H143H142V22.0018V5.15813V4.15813H143Z" fill="#92DCDC"/>
</svg>
